<?xml version="1.0" encoding="UTF-8" standalone="yes"?>
<svg version="1.2" width="100%" viewBox="0 0 750 750" xml:space="preserve" baseProfile="tiny-ps" xmlns="http://www.w3.org/2000/svg">
  <title>bimi-svg-tiny-12-ps</title>
  <path fill="#BCCACC" stroke="none" d="&#xA;M740.000061,373.000000 &#xA;&#x9;C740.000061,388.165314 739.759094,402.835632 740.062012,417.494690 &#xA;&#x9;C740.428040,435.207489 734.538147,438.509613 719.809082,442.981628 &#xA;&#x9;C706.412964,447.048889 692.972900,450.975952 679.639038,455.236816 &#xA;&#x9;C678.212341,455.692719 676.777832,457.806824 676.339783,459.421112 &#xA;&#x9;C669.963684,482.919647 661.105652,505.474365 648.827393,526.440308 &#xA;&#x9;C645.132446,532.749634 647.703491,536.653748 650.090576,541.296997 &#xA;&#x9;C656.962219,554.664062 664.151428,567.868103 671.001953,581.245789 &#xA;&#x9;C673.678101,586.471741 671.793335,594.639282 667.129272,599.318909 &#xA;&#x9;C644.543762,621.979492 622.055298,644.740784 599.184631,667.110657 &#xA;&#x9;C593.282593,672.883484 586.375610,673.848877 578.544800,669.802673 &#xA;&#x9;C567.035034,663.855469 555.382874,658.119019 544.270447,651.489807 &#xA;&#x9;C536.496399,646.852112 530.305664,646.085754 521.894348,651.176392 &#xA;&#x9;C503.645782,662.221008 483.475922,669.413635 463.026215,675.313965 &#xA;&#x9;C457.121216,677.017761 454.819611,679.938660 453.270813,685.204956 &#xA;&#x9;C449.043213,699.580017 444.510895,713.866516 439.999329,728.156494 &#xA;&#x9;C437.646576,735.608765 432.810791,738.997009 424.958252,738.997803 &#xA;&#x9;C392.794525,739.000977 360.627686,738.755981 328.469330,739.171204 &#xA;&#x9;C320.497467,739.274048 313.607758,734.516479 310.942902,725.349792 &#xA;&#x9;C306.533783,710.183167 301.534241,695.187988 297.134827,680.018738 &#xA;&#x9;C295.806549,675.438721 291.777496,676.289917 289.029144,675.208679 &#xA;&#x9;C275.862183,670.028870 262.315521,665.801392 249.212631,660.475769 &#xA;&#x9;C240.274551,656.842896 231.774719,652.091431 223.228119,647.558838 &#xA;&#x9;C220.443390,646.082031 218.396713,646.179626 215.641479,647.661438 &#xA;&#x9;C201.833038,655.088074 187.884979,662.254944 173.993118,669.526672 &#xA;&#x9;C164.700287,674.391052 157.808289,672.176025 151.373428,665.856750 &#xA;&#x9;C129.390656,644.268921 107.587875,622.492554 86.026016,600.484802 &#xA;&#x9;C79.617500,593.943787 77.682983,587.073792 82.569145,577.867676 &#xA;&#x9;C89.233124,565.312073 95.355293,552.441162 102.596443,540.231262 &#xA;&#x9;C106.273003,534.031860 104.938622,529.456970 102.097275,523.747070 &#xA;&#x9;C95.717323,510.925964 89.616989,497.932922 84.156982,484.698730 &#xA;&#x9;C80.671539,476.250580 78.659042,467.203186 75.672195,458.532623 &#xA;&#x9;C75.168411,457.070221 73.253220,455.581879 71.679222,455.079254 &#xA;&#x9;C55.546711,449.928040 39.328167,445.046783 23.182520,439.935760 &#xA;&#x9;C17.165709,438.031128 13.003390,431.714294 13.002635,425.163300 &#xA;&#x9;C12.999005,393.666199 13.346425,362.163422 12.831052,330.674744 &#xA;&#x9;C12.624794,318.072632 18.071941,313.300201 28.750624,310.056488 &#xA;&#x9;C43.420433,305.600403 58.172798,301.413147 72.800377,296.825653 &#xA;&#x9;C74.189987,296.389832 75.317947,294.066315 75.935417,292.386841 &#xA;&#x9;C81.376526,277.587341 86.310516,262.589935 92.152321,247.953522 &#xA;&#x9;C95.610413,239.289429 100.600014,231.246719 104.516350,222.747360 &#xA;&#x9;C105.364975,220.905655 105.321419,217.924026 104.407516,216.114594 &#xA;&#x9;C97.269226,201.981628 89.798309,188.016998 82.470261,173.979431 &#xA;&#x9;C77.487389,164.434265 79.914200,157.739456 86.155884,151.369156 &#xA;&#x9;C107.602119,129.480957 129.305359,107.841179 151.128281,86.327477 &#xA;&#x9;C157.912994,79.638893 165.277435,77.804863 174.156967,82.572693 &#xA;&#x9;C186.686356,89.300285 199.574936,95.401047 211.809814,102.617706 &#xA;&#x9;C218.167007,106.367455 223.052704,105.156761 228.637909,101.805344 &#xA;&#x9;C247.313400,90.599068 267.598389,83.180367 288.381104,77.042221 &#xA;&#x9;C293.495300,75.531754 297.028564,73.916138 298.579773,67.534698 &#xA;&#x9;C302.261505,52.388298 307.398132,37.592754 312.035919,22.683138 &#xA;&#x9;C313.531891,17.873907 320.467499,13.015860 325.656586,13.012411 &#xA;&#x9;C359.153503,12.990153 392.650452,12.988119 426.147369,13.012011 &#xA;&#x9;C432.624084,13.016630 437.877380,17.006596 439.983948,23.603567 &#xA;&#x9;C445.025330,39.391327 450.116241,55.166412 454.833191,71.051712 &#xA;&#x9;C455.669464,73.867973 457.201050,75.117935 459.483612,75.744499 &#xA;&#x9;C483.543671,82.348907 506.504517,91.613075 528.136414,104.067711 &#xA;&#x9;C531.090393,105.768471 533.374939,105.952782 536.562744,104.221542 &#xA;&#x9;C550.219849,96.804466 564.121826,89.840111 577.856384,82.563164 &#xA;&#x9;C585.940613,78.279915 593.733582,79.143425 600.815369,86.270340 &#xA;&#x9;C622.545044,108.138519 644.354553,129.927719 666.206055,151.674225 &#xA;&#x9;C671.514526,156.957153 674.217285,165.562576 669.885071,173.513824 &#xA;&#x9;C662.152039,187.707108 654.693237,202.052124 647.330200,216.441391 &#xA;&#x9;C646.525635,218.013748 646.327637,220.737228 647.155029,222.174622 &#xA;&#x9;C656.121094,237.751801 663.624451,253.980408 669.442871,270.973816 &#xA;&#x9;C671.887146,278.112610 673.961792,285.377441 676.250488,292.570374 &#xA;&#x9;C676.998108,294.920074 678.210693,296.352631 681.008362,297.171997 &#xA;&#x9;C695.981567,301.557404 710.806091,306.447052 725.735474,310.986603 &#xA;&#x9;C736.321045,314.205383 739.817139,319.988281 739.954773,330.504608 &#xA;&#x9;C740.137878,344.500885 740.000061,358.501343 740.000061,373.000000 &#xA;M650.755005,484.194489 &#xA;&#x9;C654.615784,471.978516 658.582336,459.794342 662.269043,447.526031 &#xA;&#x9;C663.297546,444.103302 665.135559,442.269531 668.522827,441.250763 &#xA;&#x9;C685.263184,436.215851 701.925049,430.918671 718.680176,425.934692 &#xA;&#x9;C722.013672,424.943115 723.086609,423.365997 723.072693,419.946411 &#xA;&#x9;C722.953125,390.614288 722.948669,361.281189 723.076965,331.949127 &#xA;&#x9;C723.092285,328.451141 721.837891,327.016327 718.577698,326.043823 &#xA;&#x9;C701.826233,321.047089 685.165588,315.746246 668.423035,310.718872 &#xA;&#x9;C664.994263,309.689301 663.106445,307.816864 662.274109,304.362885 &#xA;&#x9;C655.350830,275.634949 643.908142,248.782761 628.792358,223.420761 &#xA;&#x9;C627.786682,221.733444 627.735596,218.570023 628.632690,216.797958 &#xA;&#x9;C636.531067,201.195831 644.632019,185.692429 652.945374,170.306946 &#xA;&#x9;C655.031250,166.446686 654.753601,164.014496 651.542786,160.852295 &#xA;&#x9;C631.713135,141.322906 612.106995,121.566574 592.425964,101.886284 &#xA;&#x9;C586.749329,96.209892 586.822266,96.347504 579.868225,100.103981 &#xA;&#x9;C565.363831,107.939117 550.742554,115.557938 536.243408,123.402641 &#xA;&#x9;C533.258362,125.017677 530.925293,124.926453 527.969971,123.121765 &#xA;&#x9;C502.767426,107.731682 475.763000,96.594963 447.078796,89.597046 &#xA;&#x9;C443.895721,88.820496 442.402924,87.173248 441.490265,84.132423 &#xA;&#x9;C436.512909,67.548721 431.262207,51.046669 426.344513,34.445736 &#xA;&#x9;C425.187561,30.540070 423.595612,28.848166 419.152191,28.883270 &#xA;&#x9;C390.488007,29.109718 361.820709,29.077318 333.155701,28.910461 &#xA;&#x9;C329.115143,28.886942 327.221405,30.174564 326.060638,34.038525 &#xA;&#x9;C321.078674,50.622650 315.666168,67.078583 310.791840,83.693085 &#xA;&#x9;C309.676270,87.495552 307.721619,88.936089 304.160797,89.842628 &#xA;&#x9;C275.910004,97.034874 249.090988,107.729080 224.283035,123.182495 &#xA;&#x9;C221.632385,124.833649 219.497040,125.099670 216.503387,123.481934 &#xA;&#x9;C201.118530,115.168106 185.510773,107.267105 170.111893,98.978523 &#xA;&#x9;C166.435654,96.999756 164.111069,97.205254 161.067551,100.291962 &#xA;&#x9;C140.941406,120.703629 120.675957,140.980072 100.254318,161.095947 &#xA;&#x9;C97.109886,164.193298 97.095184,166.539032 99.056824,170.144012 &#xA;&#x9;C107.334351,185.355896 115.310524,200.731476 123.524872,215.978271 &#xA;&#x9;C125.146469,218.988113 124.968842,221.423538 123.202057,224.325165 &#xA;&#x9;C119.394684,230.578064 115.628265,236.890549 112.385284,243.445892 &#xA;&#x9;C102.761726,262.898865 94.944389,283.053741 89.982269,304.234100 &#xA;&#x9;C89.201782,307.565491 87.853973,309.542480 84.150368,310.630035 &#xA;&#x9;C67.217148,315.602386 50.441433,321.108643 33.547279,326.218567 &#xA;&#x9;C30.028328,327.282928 28.926247,329.106171 28.940250,332.666962 &#xA;&#x9;C29.053627,361.499176 29.069508,390.332336 28.924978,419.164246 &#xA;&#x9;C28.905695,423.010895 30.241430,424.785736 33.863358,425.880310 &#xA;&#x9;C50.439728,430.889740 66.903946,436.273712 83.511566,441.173676 &#xA;&#x9;C87.410172,442.323944 89.151581,444.214996 90.086296,448.081757 &#xA;&#x9;C96.905067,476.289856 107.894737,502.810242 123.102570,527.535278 &#xA;&#x9;C125.007866,530.632874 125.079422,533.163757 123.377434,536.316467 &#xA;&#x9;C115.229462,551.409668 107.368172,566.658569 99.119530,581.695618 &#xA;&#x9;C96.996124,585.566528 97.281197,587.970276 100.490845,591.133362 &#xA;&#x9;C120.789207,611.136902 140.926010,631.305969 160.958481,651.576233 &#xA;&#x9;C163.883362,654.535828 166.140381,655.184692 169.965897,653.112671 &#xA;&#x9;C185.488800,644.704590 201.147690,636.541504 216.897308,628.566406 &#xA;&#x9;C218.715424,627.645813 221.952805,627.584473 223.623672,628.607849 &#xA;&#x9;C249.125870,644.228455 276.551941,655.149597 305.436127,662.536072 &#xA;&#x9;C308.483063,663.315308 309.664307,664.814087 310.531555,667.685608 &#xA;&#x9;C315.586304,684.421814 321.008820,701.047607 325.991791,717.804443 &#xA;&#x9;C327.234344,721.983093 329.348389,723.106445 333.486542,723.083130 &#xA;&#x9;C361.651642,722.924255 389.819427,722.857727 417.982788,723.130554 &#xA;&#x9;C423.073975,723.179810 425.259033,721.656311 426.651672,716.778076 &#xA;&#x9;C431.221191,700.771790 436.392120,684.937927 441.084412,668.965149 &#xA;&#x9;C442.251343,664.992859 444.281921,663.031921 448.353851,662.023743 &#xA;&#x9;C475.849304,655.216187 501.924835,644.807495 526.032715,629.862854 &#xA;&#x9;C530.728088,626.952026 534.260620,627.333435 538.789429,629.841064 &#xA;&#x9;C553.064453,637.744873 567.599731,645.177490 581.918396,653.004456 &#xA;&#x9;C585.542419,654.985413 587.903320,654.834961 590.970276,651.722534 &#xA;&#x9;C611.090210,631.304810 631.381104,611.054260 651.762512,590.897156 &#xA;&#x9;C654.589539,588.101318 655.202332,585.931885 653.240967,582.291870 &#xA;&#x9;C644.945251,566.896545 637.043762,551.288818 628.759155,535.887329 &#xA;&#x9;C627.221680,533.029175 627.224304,531.075684 628.734497,528.165771 &#xA;&#x9;C636.166504,513.844971 643.250488,499.343567 650.755005,484.194489 &#xA;z"/>
  <path fill="#DEE8EC" stroke="none" d="&#xA;M650.606140,484.550201 &#xA;&#x9;C643.250488,499.343567 636.166504,513.844971 628.734497,528.165771 &#xA;&#x9;C627.224304,531.075684 627.221680,533.029175 628.759155,535.887329 &#xA;&#x9;C637.043762,551.288818 644.945251,566.896545 653.240967,582.291870 &#xA;&#x9;C655.202332,585.931885 654.589539,588.101318 651.762512,590.897156 &#xA;&#x9;C631.381104,611.054260 611.090210,631.304810 590.970276,651.722534 &#xA;&#x9;C587.903320,654.834961 585.542419,654.985413 581.918396,653.004456 &#xA;&#x9;C567.599731,645.177490 553.064453,637.744873 538.789429,629.841064 &#xA;&#x9;C534.260620,627.333435 530.728088,626.952026 526.032715,629.862854 &#xA;&#x9;C501.924835,644.807495 475.849304,655.216187 448.353851,662.023743 &#xA;&#x9;C444.281921,663.031921 442.251343,664.992859 441.084412,668.965149 &#xA;&#x9;C436.392120,684.937927 431.221191,700.771790 426.651672,716.778076 &#xA;&#x9;C425.259033,721.656311 423.073975,723.179810 417.982788,723.130554 &#xA;&#x9;C389.819427,722.857727 361.651642,722.924255 333.486542,723.083130 &#xA;&#x9;C329.348389,723.106445 327.234344,721.983093 325.991791,717.804443 &#xA;&#x9;C321.008820,701.047607 315.586304,684.421814 310.531555,667.685608 &#xA;&#x9;C309.664307,664.814087 308.483063,663.315308 305.436127,662.536072 &#xA;&#x9;C276.551941,655.149597 249.125870,644.228455 223.623672,628.607849 &#xA;&#x9;C221.952805,627.584473 218.715424,627.645813 216.897308,628.566406 &#xA;&#x9;C201.147690,636.541504 185.488800,644.704590 169.965897,653.112671 &#xA;&#x9;C166.140381,655.184692 163.883362,654.535828 160.958481,651.576233 &#xA;&#x9;C140.926010,631.305969 120.789207,611.136902 100.490845,591.133362 &#xA;&#x9;C97.281197,587.970276 96.996124,585.566528 99.119530,581.695618 &#xA;&#x9;C107.368172,566.658569 115.229462,551.409668 123.377434,536.316467 &#xA;&#x9;C125.079422,533.163757 125.007866,530.632874 123.102570,527.535278 &#xA;&#x9;C107.894737,502.810242 96.905067,476.289856 90.086296,448.081757 &#xA;&#x9;C89.151581,444.214996 87.410172,442.323944 83.511566,441.173676 &#xA;&#x9;C66.903946,436.273712 50.439728,430.889740 33.863358,425.880310 &#xA;&#x9;C30.241430,424.785736 28.905695,423.010895 28.924978,419.164246 &#xA;&#x9;C29.069508,390.332336 29.053627,361.499176 28.940250,332.666962 &#xA;&#x9;C28.926247,329.106171 30.028328,327.282928 33.547279,326.218567 &#xA;&#x9;C50.441433,321.108643 67.217148,315.602386 84.150368,310.630035 &#xA;&#x9;C87.853973,309.542480 89.201782,307.565491 89.982269,304.234100 &#xA;&#x9;C94.944389,283.053741 102.761726,262.898865 112.385284,243.445892 &#xA;&#x9;C115.628265,236.890549 119.394684,230.578064 123.202057,224.325165 &#xA;&#x9;C124.968842,221.423538 125.146469,218.988113 123.524872,215.978271 &#xA;&#x9;C115.310524,200.731476 107.334351,185.355896 99.056824,170.144012 &#xA;&#x9;C97.095184,166.539032 97.109886,164.193298 100.254318,161.095947 &#xA;&#x9;C120.675957,140.980072 140.941406,120.703629 161.067551,100.291962 &#xA;&#x9;C164.111069,97.205254 166.435654,96.999756 170.111893,98.978523 &#xA;&#x9;C185.510773,107.267105 201.118530,115.168106 216.503387,123.481934 &#xA;&#x9;C219.497040,125.099670 221.632385,124.833649 224.283035,123.182495 &#xA;&#x9;C249.090988,107.729080 275.910004,97.034874 304.160797,89.842628 &#xA;&#x9;C307.721619,88.936089 309.676270,87.495552 310.791840,83.693085 &#xA;&#x9;C315.666168,67.078583 321.078674,50.622650 326.060638,34.038525 &#xA;&#x9;C327.221405,30.174564 329.115143,28.886942 333.155701,28.910461 &#xA;&#x9;C361.820709,29.077318 390.488007,29.109718 419.152191,28.883270 &#xA;&#x9;C423.595612,28.848166 425.187561,30.540070 426.344513,34.445736 &#xA;&#x9;C431.262207,51.046669 436.512909,67.548721 441.490265,84.132423 &#xA;&#x9;C442.402924,87.173248 443.895721,88.820496 447.078796,89.597046 &#xA;&#x9;C475.763000,96.594963 502.767426,107.731682 527.969971,123.121765 &#xA;&#x9;C530.925293,124.926453 533.258362,125.017677 536.243408,123.402641 &#xA;&#x9;C550.742554,115.557938 565.363831,107.939117 579.868225,100.103981 &#xA;&#x9;C586.822266,96.347504 586.749329,96.209892 592.425964,101.886284 &#xA;&#x9;C612.106995,121.566574 631.713135,141.322906 651.542786,160.852295 &#xA;&#x9;C654.753601,164.014496 655.031250,166.446686 652.945374,170.306946 &#xA;&#x9;C644.632019,185.692429 636.531067,201.195831 628.632690,216.797958 &#xA;&#x9;C627.735596,218.570023 627.786682,221.733444 628.792358,223.420761 &#xA;&#x9;C643.908142,248.782761 655.350830,275.634949 662.274109,304.362885 &#xA;&#x9;C663.106445,307.816864 664.994263,309.689301 668.423035,310.718872 &#xA;&#x9;C685.165588,315.746246 701.826233,321.047089 718.577698,326.043823 &#xA;&#x9;C721.837891,327.016327 723.092285,328.451141 723.076965,331.949127 &#xA;&#x9;C722.948669,361.281189 722.953125,390.614288 723.072693,419.946411 &#xA;&#x9;C723.086609,423.365997 722.013672,424.943115 718.680176,425.934692 &#xA;&#x9;C701.925049,430.918671 685.263184,436.215851 668.522827,441.250763 &#xA;&#x9;C665.135559,442.269531 663.297546,444.103302 662.269043,447.526031 &#xA;&#x9;C658.582336,459.794342 654.615784,471.978516 650.606140,484.550201 &#xA;M409.216736,88.255066 &#xA;&#x9;C407.023865,81.105255 404.661713,74.001411 402.702728,66.788086 &#xA;&#x9;C401.559631,62.578983 399.455322,60.881660 394.928741,60.981735 &#xA;&#x9;C382.270874,61.261585 369.600159,61.224606 356.940186,60.997112 &#xA;&#x9;C352.733917,60.921532 350.645172,62.345829 349.433990,66.420143 &#xA;&#x9;C345.124268,80.917465 340.354950,95.278778 336.101532,109.791794 &#xA;&#x9;C334.902771,113.882065 332.726257,115.759644 328.718689,116.690544 &#xA;&#x9;C319.492767,118.833588 310.310364,121.197159 301.190521,123.757149 &#xA;&#x9;C274.195831,131.334732 249.622101,144.125397 226.153351,159.173965 &#xA;&#x9;C222.642212,161.425369 219.815659,161.625259 216.092651,159.593323 &#xA;&#x9;C202.665817,152.265320 189.029922,145.321472 175.541275,138.104843 &#xA;&#x9;C172.259705,136.349167 169.812210,136.604156 167.140350,139.341812 &#xA;&#x9;C158.063477,148.642227 148.888397,157.851257 139.566071,166.904938 &#xA;&#x9;C136.643692,169.743118 136.483871,172.256531 138.344330,175.708755 &#xA;&#x9;C145.523026,189.029266 152.398758,202.513596 159.629425,215.805191 &#xA;&#x9;C161.604156,219.435211 161.716965,222.260376 159.413895,225.864731 &#xA;&#x9;C154.312378,233.848679 149.574524,242.075943 144.937469,250.343704 &#xA;&#x9;C131.309143,274.642578 122.836258,300.837646 116.954216,327.929810 &#xA;&#x9;C115.963539,332.492737 113.934113,334.975342 109.220520,336.327271 &#xA;&#x9;C94.847191,340.449860 80.672310,345.259766 66.338066,349.526184 &#xA;&#x9;C62.490547,350.671387 60.935749,352.524170 60.991249,356.564850 &#xA;&#x9;C61.169727,369.559753 61.141708,382.559479 61.004768,395.555389 &#xA;&#x9;C60.965462,399.285889 62.212494,401.227631 65.963272,402.347351 &#xA;&#x9;C80.454773,406.673492 94.787270,411.539368 109.315224,415.732147 &#xA;&#x9;C113.840912,417.038269 115.874199,419.391815 116.761894,423.766541 &#xA;&#x9;C124.261574,460.726379 138.656555,494.852936 159.416885,526.291382 &#xA;&#x9;C161.675964,529.712463 161.472382,532.456848 159.597885,535.912781 &#xA;&#x9;C152.383698,549.213257 145.494781,562.690002 138.314880,576.009521 &#xA;&#x9;C136.353836,579.647461 136.625244,582.250366 139.709702,585.220947 &#xA;&#x9;C148.829391,594.003845 157.813080,602.939453 166.555710,612.096252 &#xA;&#x9;C169.714386,615.404541 172.381744,615.489990 176.175095,613.434326 &#xA;&#x9;C189.330994,606.305115 202.685883,599.542358 215.821915,592.377747 &#xA;&#x9;C219.461838,590.392456 222.243927,590.366943 225.879868,592.557922 &#xA;&#x9;C236.985703,599.250000 248.160248,605.880554 259.664490,611.847839 &#xA;&#x9;C281.207214,623.022095 304.322632,629.843689 327.932068,635.019653 &#xA;&#x9;C332.507629,636.022827 334.950684,638.094360 336.300171,642.781372 &#xA;&#x9;C340.483795,657.312134 345.313538,671.655701 349.664368,686.140381 &#xA;&#x9;C350.765808,689.807190 352.638336,691.187805 356.436310,691.139221 &#xA;&#x9;C369.264893,690.974915 382.100647,690.900818 394.925598,691.172791 &#xA;&#x9;C399.415741,691.268005 401.463440,689.608032 402.701477,685.414917 &#xA;&#x9;C406.984222,670.909851 411.685669,656.528198 415.959808,642.020691 &#xA;&#x9;C417.095520,638.165771 419.078217,636.344543 423.006195,635.468506 &#xA;&#x9;C432.088623,633.442932 441.101410,631.062744 450.061707,628.539673 &#xA;&#x9;C477.372650,620.849365 502.295929,608.000122 526.044495,592.752930 &#xA;&#x9;C529.634888,590.447815 532.453735,590.486572 536.096191,592.466553 &#xA;&#x9;C549.388000,599.691772 562.870728,606.564941 576.191101,613.738525 &#xA;&#x9;C579.647644,615.600037 582.181946,615.420288 585.010254,612.511475 &#xA;&#x9;C593.953491,603.313721 603.007446,594.217468 612.235046,585.306152 &#xA;&#x9;C615.312561,582.334045 615.555664,579.762329 613.566345,576.095154 &#xA;&#x9;C606.588989,563.232849 600.035461,550.138733 592.950500,537.337708 &#xA;&#x9;C590.497620,532.905823 590.383606,529.529419 593.147644,525.065002 &#xA;&#x9;C599.795166,514.328247 606.130432,503.361908 611.939819,492.150360 &#xA;&#x9;C623.107971,470.596680 629.906677,447.475494 635.096619,423.863129 &#xA;&#x9;C636.047180,419.538696 637.942322,417.084900 642.515076,415.787567 &#xA;&#x9;C656.740662,411.751556 670.768982,407.025452 684.951172,402.828247 &#xA;&#x9;C689.295715,401.542480 691.154541,399.445953 691.041565,394.713928 &#xA;&#x9;C690.747437,382.390137 690.730347,370.049194 691.048584,357.726624 &#xA;&#x9;C691.173462,352.889709 689.577454,350.513519 684.912354,349.145844 &#xA;&#x9;C670.719788,344.984802 656.688538,340.271362 642.483948,336.154358 &#xA;&#x9;C638.220398,334.918610 636.175110,332.779510 635.304138,328.497803 &#xA;&#x9;C627.755737,291.387329 613.367371,257.082428 592.466980,225.524826 &#xA;&#x9;C590.324829,222.290375 590.483215,219.631195 592.261353,216.340195 &#xA;&#x9;C599.532837,202.882050 606.533936,189.277985 613.772339,175.801651 &#xA;&#x9;C615.616943,172.367416 615.428101,169.795685 612.515747,166.966995 &#xA;&#x9;C603.313110,158.028915 594.218384,148.973572 585.298706,139.753815 &#xA;&#x9;C582.328491,136.683670 579.772644,136.466507 576.101135,138.460892 &#xA;&#x9;C562.805969,145.682861 549.316589,152.547073 536.012573,159.753143 &#xA;&#x9;C532.556152,161.625320 529.853394,161.631561 526.384338,159.556396 &#xA;&#x9;C515.114136,152.814789 503.782043,146.135559 492.154541,140.041458 &#xA;&#x9;C470.191467,128.530380 446.461914,121.978790 422.447235,116.441765 &#xA;&#x9;C418.844513,115.611084 417.052216,113.869934 416.079773,110.451447 &#xA;&#x9;C414.033844,103.259056 411.713959,96.144592 409.216736,88.255066 &#xA;z"/>
  <path fill="#2E2A28" stroke="none" d="&#xA;M409.361633,88.626602 &#xA;&#x9;C411.713959,96.144592 414.033844,103.259056 416.079773,110.451447 &#xA;&#x9;C417.052216,113.869934 418.844513,115.611084 422.447235,116.441765 &#xA;&#x9;C446.461914,121.978790 470.191467,128.530380 492.154541,140.041458 &#xA;&#x9;C503.782043,146.135559 515.114136,152.814789 526.384338,159.556396 &#xA;&#x9;C529.853394,161.631561 532.556152,161.625320 536.012573,159.753143 &#xA;&#x9;C549.316589,152.547073 562.805969,145.682861 576.101135,138.460892 &#xA;&#x9;C579.772644,136.466507 582.328491,136.683670 585.298706,139.753815 &#xA;&#x9;C594.218384,148.973572 603.313110,158.028915 612.515747,166.966995 &#xA;&#x9;C615.428101,169.795685 615.616943,172.367416 613.772339,175.801651 &#xA;&#x9;C606.533936,189.277985 599.532837,202.882050 592.261353,216.340195 &#xA;&#x9;C590.483215,219.631195 590.324829,222.290375 592.466980,225.524826 &#xA;&#x9;C613.367371,257.082428 627.755737,291.387329 635.304138,328.497803 &#xA;&#x9;C636.175110,332.779510 638.220398,334.918610 642.483948,336.154358 &#xA;&#x9;C656.688538,340.271362 670.719788,344.984802 684.912354,349.145844 &#xA;&#x9;C689.577454,350.513519 691.173462,352.889709 691.048584,357.726624 &#xA;&#x9;C690.730347,370.049194 690.747437,382.390137 691.041565,394.713928 &#xA;&#x9;C691.154541,399.445953 689.295715,401.542480 684.951172,402.828247 &#xA;&#x9;C670.768982,407.025452 656.740662,411.751556 642.515076,415.787567 &#xA;&#x9;C637.942322,417.084900 636.047180,419.538696 635.096619,423.863129 &#xA;&#x9;C629.906677,447.475494 623.107971,470.596680 611.939819,492.150360 &#xA;&#x9;C606.130432,503.361908 599.795166,514.328247 593.147644,525.065002 &#xA;&#x9;C590.383606,529.529419 590.497620,532.905823 592.950500,537.337708 &#xA;&#x9;C600.035461,550.138733 606.588989,563.232849 613.566345,576.095154 &#xA;&#x9;C615.555664,579.762329 615.312561,582.334045 612.235046,585.306152 &#xA;&#x9;C603.007446,594.217468 593.953491,603.313721 585.010254,612.511475 &#xA;&#x9;C582.181946,615.420288 579.647644,615.600037 576.191101,613.738525 &#xA;&#x9;C562.870728,606.564941 549.388000,599.691772 536.096191,592.466553 &#xA;&#x9;C532.453735,590.486572 529.634888,590.447815 526.044495,592.752930 &#xA;&#x9;C502.295929,608.000122 477.372650,620.849365 450.061707,628.539673 &#xA;&#x9;C441.101410,631.062744 432.088623,633.442932 423.006195,635.468506 &#xA;&#x9;C419.078217,636.344543 417.095520,638.165771 415.959808,642.020691 &#xA;&#x9;C411.685669,656.528198 406.984222,670.909851 402.701477,685.414917 &#xA;&#x9;C401.463440,689.608032 399.415741,691.268005 394.925598,691.172791 &#xA;&#x9;C382.100647,690.900818 369.264893,690.974915 356.436310,691.139221 &#xA;&#x9;C352.638336,691.187805 350.765808,689.807190 349.664368,686.140381 &#xA;&#x9;C345.313538,671.655701 340.483795,657.312134 336.300171,642.781372 &#xA;&#x9;C334.950684,638.094360 332.507629,636.022827 327.932068,635.019653 &#xA;&#x9;C304.322632,629.843689 281.207214,623.022095 259.664490,611.847839 &#xA;&#x9;C248.160248,605.880554 236.985703,599.250000 225.879868,592.557922 &#xA;&#x9;C222.243927,590.366943 219.461838,590.392456 215.821915,592.377747 &#xA;&#x9;C202.685883,599.542358 189.330994,606.305115 176.175095,613.434326 &#xA;&#x9;C172.381744,615.489990 169.714386,615.404541 166.555710,612.096252 &#xA;&#x9;C157.813080,602.939453 148.829391,594.003845 139.709702,585.220947 &#xA;&#x9;C136.625244,582.250366 136.353836,579.647461 138.314880,576.009521 &#xA;&#x9;C145.494781,562.690002 152.383698,549.213257 159.597885,535.912781 &#xA;&#x9;C161.472382,532.456848 161.675964,529.712463 159.416885,526.291382 &#xA;&#x9;C138.656555,494.852936 124.261574,460.726379 116.761894,423.766541 &#xA;&#x9;C115.874199,419.391815 113.840912,417.038269 109.315224,415.732147 &#xA;&#x9;C94.787270,411.539368 80.454773,406.673492 65.963272,402.347351 &#xA;&#x9;C62.212494,401.227631 60.965462,399.285889 61.004768,395.555389 &#xA;&#x9;C61.141708,382.559479 61.169727,369.559753 60.991249,356.564850 &#xA;&#x9;C60.935749,352.524170 62.490547,350.671387 66.338066,349.526184 &#xA;&#x9;C80.672310,345.259766 94.847191,340.449860 109.220520,336.327271 &#xA;&#x9;C113.934113,334.975342 115.963539,332.492737 116.954216,327.929810 &#xA;&#x9;C122.836258,300.837646 131.309143,274.642578 144.937469,250.343704 &#xA;&#x9;C149.574524,242.075943 154.312378,233.848679 159.413895,225.864731 &#xA;&#x9;C161.716965,222.260376 161.604156,219.435211 159.629425,215.805191 &#xA;&#x9;C152.398758,202.513596 145.523026,189.029266 138.344330,175.708755 &#xA;&#x9;C136.483871,172.256531 136.643692,169.743118 139.566071,166.904938 &#xA;&#x9;C148.888397,157.851257 158.063477,148.642227 167.140350,139.341812 &#xA;&#x9;C169.812210,136.604156 172.259705,136.349167 175.541275,138.104843 &#xA;&#x9;C189.029922,145.321472 202.665817,152.265320 216.092651,159.593323 &#xA;&#x9;C219.815659,161.625259 222.642212,161.425369 226.153351,159.173965 &#xA;&#x9;C249.622101,144.125397 274.195831,131.334732 301.190521,123.757149 &#xA;&#x9;C310.310364,121.197159 319.492767,118.833588 328.718689,116.690544 &#xA;&#x9;C332.726257,115.759644 334.902771,113.882065 336.101532,109.791794 &#xA;&#x9;C340.354950,95.278778 345.124268,80.917465 349.433990,66.420143 &#xA;&#x9;C350.645172,62.345829 352.733917,60.921532 356.940186,60.997112 &#xA;&#x9;C369.600159,61.224606 382.270874,61.261585 394.928741,60.981735 &#xA;&#x9;C399.455322,60.881660 401.559631,62.578983 402.702728,66.788086 &#xA;&#x9;C404.661713,74.001411 407.023865,81.105255 409.361633,88.626602 &#xA;M212.710251,420.922302 &#xA;&#x9;C241.694595,420.902344 270.680908,421.072479 299.662415,420.775635 &#xA;&#x9;C312.554810,420.643585 325.171112,418.422760 336.711212,412.101929 &#xA;&#x9;C352.808563,403.284912 360.006042,389.610992 359.251678,371.374481 &#xA;&#x9;C358.527771,353.874390 349.283966,342.690338 333.780975,335.906311 &#xA;&#x9;C331.544830,334.927826 329.295929,333.978455 326.586884,332.815582 &#xA;&#x9;C328.460144,331.790863 329.758026,331.088867 331.048584,330.373627 &#xA;&#x9;C345.749268,322.226288 352.697815,309.688538 351.925049,292.967590 &#xA;&#x9;C351.183716,276.926636 343.133942,265.229431 328.591797,259.260010 &#xA;&#x9;C320.009521,255.737061 310.362854,253.391739 301.124207,253.143143 &#xA;&#x9;C271.161316,252.336868 241.165756,252.741425 211.182770,252.694412 &#xA;&#x9;C210.569687,252.693451 209.956314,252.871460 208.999207,253.018967 &#xA;&#x9;C208.999207,254.354736 208.999191,255.488937 208.999191,256.623138 &#xA;&#x9;C208.999176,309.928436 208.998840,363.233704 209.001801,416.539001 &#xA;&#x9;C209.001862,417.537323 208.699783,418.752319 209.157410,419.473663 &#xA;&#x9;C209.623840,420.208801 210.855484,420.458496 212.710251,420.922302 &#xA;M511.500214,252.664124 &#xA;&#x9;C504.336975,252.664139 497.168823,252.819717 490.012634,252.594788 &#xA;&#x9;C486.716919,252.491226 484.514465,253.510757 482.375183,256.068512 &#xA;&#x9;C468.378693,272.803040 454.219238,289.401337 440.107422,306.039368 &#xA;&#x9;C436.304382,310.523224 432.481812,314.990540 428.668213,319.465424 &#xA;&#x9;C428.278412,319.324005 427.888580,319.182556 427.498779,319.041138 &#xA;&#x9;C427.498779,297.040955 427.498779,275.040771 427.498779,252.859344 &#xA;&#x9;C411.712219,252.859344 396.612091,252.859344 381.310181,252.859344 &#xA;&#x9;C381.310181,308.899353 381.310181,364.755798 381.310181,420.582489 &#xA;&#x9;C396.843658,420.582489 412.062714,420.582489 427.670288,420.582489 &#xA;&#x9;C427.670288,407.279205 427.629974,394.312866 427.718292,381.347412 &#xA;&#x9;C427.730133,379.609833 427.841095,377.412872 428.845703,376.219757 &#xA;&#x9;C433.856659,370.268799 439.181488,364.582092 444.614380,358.560211 &#xA;&#x9;C445.832123,360.235260 446.837769,361.537994 447.759003,362.897949 &#xA;&#x9;C460.079163,381.084900 472.438019,399.246124 484.639709,417.512329 &#xA;&#x9;C486.305267,420.005676 488.021362,421.026062 491.061188,420.996155 &#xA;&#x9;C506.885376,420.840363 522.711914,420.932007 538.537659,420.906311 &#xA;&#x9;C539.732727,420.904358 540.927368,420.659027 542.698486,420.463104 &#xA;&#x9;C520.632385,388.338623 498.983215,356.821136 477.133636,325.011841 &#xA;&#x9;C498.155457,301.057434 519.039734,277.259796 540.624390,252.664093 &#xA;&#x9;C530.434143,252.664093 521.467224,252.664093 511.500214,252.664124 &#xA;M233.860184,491.117737 &#xA;&#x9;C239.714386,492.440643 242.625443,489.503510 244.466400,484.297424 &#xA;&#x9;C245.853333,480.375366 247.913803,476.691467 249.674454,472.901581 &#xA;&#x9;C250.050690,472.998627 250.426941,473.095703 250.803192,473.192780 &#xA;&#x9;C250.803192,481.578949 250.803192,489.965088 250.803192,498.487335 &#xA;&#x9;C255.185089,498.487335 259.035095,498.487335 262.832275,498.487335 &#xA;&#x9;C262.832275,479.146149 262.832275,460.246674 262.832275,440.920441 &#xA;&#x9;C260.831329,440.920441 259.154938,441.158875 257.571594,440.876221 &#xA;&#x9;C252.614914,439.991333 250.156097,442.143402 248.401657,446.743591 &#xA;&#x9;C245.263687,454.971527 241.486893,462.956787 237.932816,471.023956 &#xA;&#x9;C237.456711,472.104675 236.722626,473.071716 235.832382,474.548645 &#xA;&#x9;C231.076752,464.028412 226.678131,454.165253 222.121948,444.375397 &#xA;&#x9;C221.504791,443.049316 220.212067,441.284882 219.034042,441.117462 &#xA;&#x9;C215.846024,440.664429 212.551285,440.962280 209.433075,440.962280 &#xA;&#x9;C209.433075,460.740051 209.433075,479.772583 209.433075,498.581421 &#xA;&#x9;C213.780624,498.581421 217.679611,498.581421 222.076508,498.581421 &#xA;&#x9;C222.076508,489.839630 222.076508,481.511597 222.076508,473.183563 &#xA;&#x9;C225.059738,477.869415 227.172943,482.712036 229.575897,487.406342 &#xA;&#x9;C230.312820,488.846008 231.843536,489.879333 233.860184,491.117737 &#xA;M494.716766,456.504578 &#xA;&#x9;C494.716766,451.397919 494.716766,446.291290 494.716766,441.150391 &#xA;&#x9;C490.029785,441.150391 486.133362,441.150391 481.689880,441.150391 &#xA;&#x9;C481.689880,452.404510 481.689880,463.276093 481.689880,475.677979 &#xA;&#x9;C479.876129,473.096527 478.931000,471.812256 478.048981,470.485962 &#xA;&#x9;C472.883789,462.719208 467.782532,454.909454 462.563812,447.178955 &#xA;&#x9;C457.578888,439.794739 456.652100,439.498383 447.216797,441.445679 &#xA;&#x9;C447.216797,460.443787 447.216797,479.469666 447.216797,498.471497 &#xA;&#x9;C451.533997,498.471497 455.413544,498.471497 460.001465,498.471497 &#xA;&#x9;C460.001465,487.271698 460.001465,476.477783 460.001465,464.685791 &#xA;&#x9;C466.660339,474.556519 473.168884,483.065186 478.382324,492.304688 &#xA;&#x9;C482.321442,499.285858 487.532501,499.809814 494.716431,498.381683 &#xA;&#x9;C494.716431,484.743256 494.716431,471.122955 494.716766,456.504578 &#xA;M374.186798,491.393066 &#xA;&#x9;C374.186798,493.813660 374.186798,496.234253 374.186798,498.570526 &#xA;&#x9;C378.959229,498.570526 382.868073,498.570526 387.362915,498.570526 &#xA;&#x9;C387.362915,490.621796 387.362915,483.046478 387.362915,475.496613 &#xA;&#x9;C393.873474,475.496613 399.782959,475.496613 406.274597,475.496613 &#xA;&#x9;C406.274597,483.429565 406.274597,491.003967 406.274597,498.582764 &#xA;&#x9;C410.769653,498.582764 414.667023,498.582764 418.673706,498.582764 &#xA;&#x9;C418.673706,479.290039 418.673706,460.372253 418.673706,441.163055 &#xA;&#x9;C414.495270,441.163055 410.599670,441.163055 406.063965,441.163055 &#xA;&#x9;C406.063965,448.826691 406.063965,456.216156 406.063965,463.749268 &#xA;&#x9;C399.513275,463.749268 393.604919,463.749268 387.059204,463.749268 &#xA;&#x9;C387.059204,456.080383 387.059204,448.688354 387.059204,441.214600 &#xA;&#x9;C382.515747,441.214600 378.617004,441.214600 374.186951,441.214600 &#xA;&#x9;C374.186951,457.842987 374.186951,474.132446 374.186798,491.393066 &#xA;M501.941284,456.503479 &#xA;&#x9;C501.941284,470.570648 501.941284,484.637787 501.941284,498.618713 &#xA;&#x9;C516.084412,498.618713 529.337036,498.618713 542.589844,498.618713 &#xA;&#x9;C542.589844,494.738525 542.589844,491.200317 542.589844,487.146606 &#xA;&#x9;C533.263916,487.146606 524.346252,487.146606 515.299072,487.146606 &#xA;&#x9;C515.299072,482.909576 515.299072,479.211609 515.299072,474.969452 &#xA;&#x9;C523.273865,474.969452 530.850220,474.969452 538.444336,474.969452 &#xA;&#x9;C538.444336,471.037598 538.444336,467.675140 538.444336,463.812073 &#xA;&#x9;C530.413147,463.812073 522.825195,463.812073 515.296753,463.812073 &#xA;&#x9;C515.296753,459.738098 515.296753,456.179413 515.296753,452.133301 &#xA;&#x9;C524.615234,452.133301 533.536316,452.133301 542.725159,452.133301 &#xA;&#x9;C542.725159,448.232391 542.725159,444.835083 542.725159,441.238892 &#xA;&#x9;C529.088135,441.238892 515.720337,441.238892 501.941254,441.238892 &#xA;&#x9;C501.941254,446.232971 501.941254,450.869019 501.941284,456.503479 &#xA;M308.191620,459.257477 &#xA;&#x9;C306.358948,454.443024 304.255615,449.709686 302.780762,444.787994 &#xA;&#x9;C301.637146,440.971802 299.167816,440.833893 295.953674,440.785553 &#xA;&#x9;C292.617920,440.735443 290.586395,441.361237 289.250641,444.953979 &#xA;&#x9;C283.112854,461.462555 276.617859,477.838226 270.275543,494.271027 &#xA;&#x9;C269.757111,495.614258 269.423004,497.028625 268.845367,498.929474 &#xA;&#x9;C272.529236,498.929474 275.716339,499.253479 278.785858,498.793304 &#xA;&#x9;C280.328522,498.562042 282.358612,497.216583 282.969055,495.842346 &#xA;&#x9;C286.871857,487.055939 286.762177,487.007233 296.190491,487.007233 &#xA;&#x9;C296.523254,487.007233 296.855988,487.007233 297.188751,487.007233 &#xA;&#x9;C305.598022,487.007263 305.502319,487.045532 308.608429,494.812988 &#xA;&#x9;C309.239380,496.390717 310.739105,498.509918 312.104767,498.730621 &#xA;&#x9;C315.573120,499.291107 319.192535,498.916901 322.693359,498.916901 &#xA;&#x9;C322.744690,497.847717 322.866577,497.483032 322.760529,497.205322 &#xA;&#x9;C318.019287,484.787476 313.257996,472.377289 308.191620,459.257477 &#xA;M338.837738,483.443817 &#xA;&#x9;C338.477448,475.097870 337.128632,466.638153 338.071594,458.442169 &#xA;&#x9;C338.817322,451.960510 349.189667,450.390900 353.835541,455.435150 &#xA;&#x9;C354.821045,456.505188 355.539734,457.820984 356.554749,459.271240 &#xA;&#x9;C360.390778,457.936249 364.085663,456.650391 367.753387,455.373962 &#xA;&#x9;C364.932587,445.664185 356.683136,440.144043 345.866821,440.340149 &#xA;&#x9;C335.288544,440.531921 326.696167,446.487976 325.211365,456.376831 &#xA;&#x9;C323.990570,464.507446 324.066223,472.965576 324.661194,481.199524 &#xA;&#x9;C325.290741,489.912384 330.210052,496.220734 339.014008,498.322723 &#xA;&#x9;C348.185120,500.512421 356.997864,499.753601 363.895599,492.320343 &#xA;&#x9;C365.724213,490.349792 366.843536,487.721069 368.509613,485.038544 &#xA;&#x9;C365.990479,483.981750 364.203766,483.166199 362.368622,482.480255 &#xA;&#x9;C360.401550,481.745026 358.388916,481.131653 356.551331,480.516968 &#xA;&#x9;C350.992157,488.369995 345.541901,489.381104 338.837738,483.443817 &#xA;M438.929199,441.311768 &#xA;&#x9;C434.996460,441.127136 431.063721,440.942535 426.869507,440.745636 &#xA;&#x9;C426.869507,460.442505 426.869507,479.513794 426.869507,498.689392 &#xA;&#x9;C431.138397,498.689392 435.068268,498.689392 439.394684,498.689392 &#xA;&#x9;C439.394684,479.640533 439.394684,460.864502 438.929199,441.311768 &#xA;z"/>
  <path fill="#DEE8EC" stroke="none" d="&#xA;M212.231171,420.921509 &#xA;&#x9;C210.855484,420.458496 209.623840,420.208801 209.157410,419.473663 &#xA;&#x9;C208.699783,418.752319 209.001862,417.537323 209.001801,416.539001 &#xA;&#x9;C208.998840,363.233704 208.999176,309.928436 208.999191,256.623138 &#xA;&#x9;C208.999191,255.488937 208.999207,254.354736 208.999207,253.018967 &#xA;&#x9;C209.956314,252.871460 210.569687,252.693451 211.182770,252.694412 &#xA;&#x9;C241.165756,252.741425 271.161316,252.336868 301.124207,253.143143 &#xA;&#x9;C310.362854,253.391739 320.009521,255.737061 328.591797,259.260010 &#xA;&#x9;C343.133942,265.229431 351.183716,276.926636 351.925049,292.967590 &#xA;&#x9;C352.697815,309.688538 345.749268,322.226288 331.048584,330.373627 &#xA;&#x9;C329.758026,331.088867 328.460144,331.790863 326.586884,332.815582 &#xA;&#x9;C329.295929,333.978455 331.544830,334.927826 333.780975,335.906311 &#xA;&#x9;C349.283966,342.690338 358.527771,353.874390 359.251678,371.374481 &#xA;&#x9;C360.006042,389.610992 352.808563,403.284912 336.711212,412.101929 &#xA;&#x9;C325.171112,418.422760 312.554810,420.643585 299.662415,420.775635 &#xA;&#x9;C270.680908,421.072479 241.694595,420.902344 212.231171,420.921509 &#xA;M254.489639,374.422852 &#xA;&#x9;C254.489639,377.224915 254.489639,380.026947 254.489639,382.775635 &#xA;&#x9;C269.440704,382.775635 283.906830,383.161041 298.334930,382.588837 &#xA;&#x9;C304.231171,382.355011 309.596069,379.335419 311.968292,373.137726 &#xA;&#x9;C315.739502,363.284973 309.573517,354.198212 297.647583,353.111176 &#xA;&#x9;C288.217072,352.251648 278.682098,352.509918 269.192291,352.341064 &#xA;&#x9;C264.434082,352.256409 259.673126,352.326294 254.489746,352.326294 &#xA;&#x9;C254.489746,359.837769 254.489746,366.639160 254.489639,374.422852 &#xA;M271.501343,290.067749 &#xA;&#x9;C265.905457,290.067749 260.309601,290.067749 254.695328,290.067749 &#xA;&#x9;C254.695328,300.296173 254.695328,309.858551 254.695328,319.764343 &#xA;&#x9;C260.213531,319.764343 265.359650,319.864441 270.500397,319.740356 &#xA;&#x9;C277.819336,319.563690 285.185059,319.666473 292.437805,318.836914 &#xA;&#x9;C301.101593,317.845917 305.919922,312.390442 305.939423,304.844421 &#xA;&#x9;C305.958588,297.428284 301.411987,292.146667 292.911438,291.047455 &#xA;&#x9;C286.177979,290.176788 279.308868,290.355194 271.501343,290.067749 &#xA;z"/>
  <path fill="#DEE8EC" stroke="none" d="&#xA;M512.000244,252.664108 &#xA;&#x9;C521.467224,252.664093 530.434143,252.664093 540.624390,252.664093 &#xA;&#x9;C519.039734,277.259796 498.155457,301.057434 477.133636,325.011841 &#xA;&#x9;C498.983215,356.821136 520.632385,388.338623 542.698486,420.463104 &#xA;&#x9;C540.927368,420.659027 539.732727,420.904358 538.537659,420.906311 &#xA;&#x9;C522.711914,420.932007 506.885376,420.840363 491.061188,420.996155 &#xA;&#x9;C488.021362,421.026062 486.305267,420.005676 484.639709,417.512329 &#xA;&#x9;C472.438019,399.246124 460.079163,381.084900 447.759003,362.897949 &#xA;&#x9;C446.837769,361.537994 445.832123,360.235260 444.614380,358.560211 &#xA;&#x9;C439.181488,364.582092 433.856659,370.268799 428.845703,376.219757 &#xA;&#x9;C427.841095,377.412872 427.730133,379.609833 427.718292,381.347412 &#xA;&#x9;C427.629974,394.312866 427.670288,407.279205 427.670288,420.582489 &#xA;&#x9;C412.062714,420.582489 396.843658,420.582489 381.310181,420.582489 &#xA;&#x9;C381.310181,364.755798 381.310181,308.899353 381.310181,252.859344 &#xA;&#x9;C396.612091,252.859344 411.712219,252.859344 427.498779,252.859344 &#xA;&#x9;C427.498779,275.040771 427.498779,297.040955 427.498779,319.041138 &#xA;&#x9;C427.888580,319.182556 428.278412,319.324005 428.668213,319.465424 &#xA;&#x9;C432.481812,314.990540 436.304382,310.523224 440.107422,306.039368 &#xA;&#x9;C454.219238,289.401337 468.378693,272.803040 482.375183,256.068512 &#xA;&#x9;C484.514465,253.510757 486.716919,252.491226 490.012634,252.594788 &#xA;&#x9;C497.168823,252.819717 504.336975,252.664139 512.000244,252.664108 &#xA;z"/>
  <path fill="#E38B2F" stroke="none" d="&#xA;M233.435486,491.108215 &#xA;&#x9;C231.843536,489.879333 230.312820,488.846008 229.575897,487.406342 &#xA;&#x9;C227.172943,482.712036 225.059738,477.869415 222.076508,473.183563 &#xA;&#x9;C222.076508,481.511597 222.076508,489.839630 222.076508,498.581421 &#xA;&#x9;C217.679611,498.581421 213.780624,498.581421 209.433075,498.581421 &#xA;&#x9;C209.433075,479.772583 209.433075,460.740051 209.433075,440.962280 &#xA;&#x9;C212.551285,440.962280 215.846024,440.664429 219.034042,441.117462 &#xA;&#x9;C220.212067,441.284882 221.504791,443.049316 222.121948,444.375397 &#xA;&#x9;C226.678131,454.165253 231.076752,464.028412 235.832382,474.548645 &#xA;&#x9;C236.722626,473.071716 237.456711,472.104675 237.932816,471.023956 &#xA;&#x9;C241.486893,462.956787 245.263687,454.971527 248.401657,446.743591 &#xA;&#x9;C250.156097,442.143402 252.614914,439.991333 257.571594,440.876221 &#xA;&#x9;C259.154938,441.158875 260.831329,440.920441 262.832275,440.920441 &#xA;&#x9;C262.832275,460.246674 262.832275,479.146149 262.832275,498.487335 &#xA;&#x9;C259.035095,498.487335 255.185089,498.487335 250.803192,498.487335 &#xA;&#x9;C250.803192,489.965088 250.803192,481.578949 250.803192,473.192780 &#xA;&#x9;C250.426941,473.095703 250.050690,472.998627 249.674454,472.901581 &#xA;&#x9;C247.913803,476.691467 245.853333,480.375366 244.466400,484.297424 &#xA;&#x9;C242.625443,489.503510 239.714386,492.440643 233.435486,491.108215 &#xA;z"/>
  <path fill="#E0892F" stroke="none" d="&#xA;M494.716614,457.003601 &#xA;&#x9;C494.716431,471.122955 494.716431,484.743256 494.716431,498.381683 &#xA;&#x9;C487.532501,499.809814 482.321442,499.285858 478.382324,492.304688 &#xA;&#x9;C473.168884,483.065186 466.660339,474.556519 460.001465,464.685791 &#xA;&#x9;C460.001465,476.477783 460.001465,487.271698 460.001465,498.471497 &#xA;&#x9;C455.413544,498.471497 451.533997,498.471497 447.216797,498.471497 &#xA;&#x9;C447.216797,479.469666 447.216797,460.443787 447.216797,441.445679 &#xA;&#x9;C456.652100,439.498383 457.578888,439.794739 462.563812,447.178955 &#xA;&#x9;C467.782532,454.909454 472.883789,462.719208 478.048981,470.485962 &#xA;&#x9;C478.931000,471.812256 479.876129,473.096527 481.689880,475.677979 &#xA;&#x9;C481.689880,463.276093 481.689880,452.404510 481.689880,441.150391 &#xA;&#x9;C486.133362,441.150391 490.029785,441.150391 494.716766,441.150391 &#xA;&#x9;C494.716766,446.291290 494.716766,451.397919 494.716614,457.003601 &#xA;z"/>
  <path fill="#E18A2F" stroke="none" d="&#xA;M374.186890,490.907471 &#xA;&#x9;C374.186951,474.132446 374.186951,457.842987 374.186951,441.214600 &#xA;&#x9;C378.617004,441.214600 382.515747,441.214600 387.059204,441.214600 &#xA;&#x9;C387.059204,448.688354 387.059204,456.080383 387.059204,463.749268 &#xA;&#x9;C393.604919,463.749268 399.513275,463.749268 406.063965,463.749268 &#xA;&#x9;C406.063965,456.216156 406.063965,448.826691 406.063965,441.163055 &#xA;&#x9;C410.599670,441.163055 414.495270,441.163055 418.673706,441.163055 &#xA;&#x9;C418.673706,460.372253 418.673706,479.290039 418.673706,498.582764 &#xA;&#x9;C414.667023,498.582764 410.769653,498.582764 406.274597,498.582764 &#xA;&#x9;C406.274597,491.003967 406.274597,483.429565 406.274597,475.496613 &#xA;&#x9;C399.782959,475.496613 393.873474,475.496613 387.362915,475.496613 &#xA;&#x9;C387.362915,483.046478 387.362915,490.621796 387.362915,498.570526 &#xA;&#x9;C382.868073,498.570526 378.959229,498.570526 374.186798,498.570526 &#xA;&#x9;C374.186798,496.234253 374.186798,493.813660 374.186890,490.907471 &#xA;z"/>
  <path fill="#E28B2F" stroke="none" d="&#xA;M501.941284,456.004272 &#xA;&#x9;C501.941254,450.869019 501.941254,446.232971 501.941254,441.238892 &#xA;&#x9;C515.720337,441.238892 529.088135,441.238892 542.725159,441.238892 &#xA;&#x9;C542.725159,444.835083 542.725159,448.232391 542.725159,452.133301 &#xA;&#x9;C533.536316,452.133301 524.615234,452.133301 515.296753,452.133301 &#xA;&#x9;C515.296753,456.179413 515.296753,459.738098 515.296753,463.812073 &#xA;&#x9;C522.825195,463.812073 530.413147,463.812073 538.444336,463.812073 &#xA;&#x9;C538.444336,467.675140 538.444336,471.037598 538.444336,474.969452 &#xA;&#x9;C530.850220,474.969452 523.273865,474.969452 515.299072,474.969452 &#xA;&#x9;C515.299072,479.211609 515.299072,482.909576 515.299072,487.146606 &#xA;&#x9;C524.346252,487.146606 533.263916,487.146606 542.589844,487.146606 &#xA;&#x9;C542.589844,491.200317 542.589844,494.738525 542.589844,498.618713 &#xA;&#x9;C529.337036,498.618713 516.084412,498.618713 501.941284,498.618713 &#xA;&#x9;C501.941284,484.637787 501.941284,470.570648 501.941284,456.004272 &#xA;z"/>
  <path fill="#E28A2F" stroke="none" d="&#xA;M308.345337,459.611816 &#xA;&#x9;C313.257996,472.377289 318.019287,484.787476 322.760529,497.205322 &#xA;&#x9;C322.866577,497.483032 322.744690,497.847717 322.693359,498.916901 &#xA;&#x9;C319.192535,498.916901 315.573120,499.291107 312.104767,498.730621 &#xA;&#x9;C310.739105,498.509918 309.239380,496.390717 308.608429,494.812988 &#xA;&#x9;C305.502319,487.045532 305.598022,487.007263 297.188751,487.007233 &#xA;&#x9;C296.855988,487.007233 296.523254,487.007233 296.190491,487.007233 &#xA;&#x9;C286.762177,487.007233 286.871857,487.055939 282.969055,495.842346 &#xA;&#x9;C282.358612,497.216583 280.328522,498.562042 278.785858,498.793304 &#xA;&#x9;C275.716339,499.253479 272.529236,498.929474 268.845367,498.929474 &#xA;&#x9;C269.423004,497.028625 269.757111,495.614258 270.275543,494.271027 &#xA;&#x9;C276.617859,477.838226 283.112854,461.462555 289.250641,444.953979 &#xA;&#x9;C290.586395,441.361237 292.617920,440.735443 295.953674,440.785553 &#xA;&#x9;C299.167816,440.833893 301.637146,440.971802 302.780762,444.787994 &#xA;&#x9;C304.255615,449.709686 306.358948,454.443024 308.345337,459.611816 &#xA;M291.905640,475.990936 &#xA;&#x9;C294.857178,475.990936 297.808746,475.990936 301.359924,475.990936 &#xA;&#x9;C299.559509,469.997620 297.920898,464.542908 296.282257,459.088226 &#xA;&#x9;C295.906250,459.082306 295.530243,459.076385 295.154236,459.070435 &#xA;&#x9;C293.807343,464.578583 292.460449,470.086731 291.905640,475.990936 &#xA;z"/>
  <path fill="#E18A2F" stroke="none" d="&#xA;M339.065857,483.771912 &#xA;&#x9;C345.541901,489.381104 350.992157,488.369995 356.551331,480.516968 &#xA;&#x9;C358.388916,481.131653 360.401550,481.745026 362.368622,482.480255 &#xA;&#x9;C364.203766,483.166199 365.990479,483.981750 368.509613,485.038544 &#xA;&#x9;C366.843536,487.721069 365.724213,490.349792 363.895599,492.320343 &#xA;&#x9;C356.997864,499.753601 348.185120,500.512421 339.014008,498.322723 &#xA;&#x9;C330.210052,496.220734 325.290741,489.912384 324.661194,481.199524 &#xA;&#x9;C324.066223,472.965576 323.990570,464.507446 325.211365,456.376831 &#xA;&#x9;C326.696167,446.487976 335.288544,440.531921 345.866821,440.340149 &#xA;&#x9;C356.683136,440.144043 364.932587,445.664185 367.753387,455.373962 &#xA;&#x9;C364.085663,456.650391 360.390778,457.936249 356.554749,459.271240 &#xA;&#x9;C355.539734,457.820984 354.821045,456.505188 353.835541,455.435150 &#xA;&#x9;C349.189667,450.390900 338.817322,451.960510 338.071594,458.442169 &#xA;&#x9;C337.128632,466.638153 338.477448,475.097870 339.065857,483.771912 &#xA;z"/>
  <path fill="#DE882F" stroke="none" d="&#xA;M439.161926,441.700134 &#xA;&#x9;C439.394684,460.864502 439.394684,479.640533 439.394684,498.689392 &#xA;&#x9;C435.068268,498.689392 431.138397,498.689392 426.869507,498.689392 &#xA;&#x9;C426.869507,479.513794 426.869507,460.442505 426.869507,440.745636 &#xA;&#x9;C431.063721,440.942535 434.996460,441.127136 439.161926,441.700134 &#xA;z"/>
  <path fill="#2F2B2A" stroke="none" d="&#xA;M254.489685,373.931702 &#xA;&#x9;C254.489746,366.639160 254.489746,359.837769 254.489746,352.326294 &#xA;&#x9;C259.673126,352.326294 264.434082,352.256409 269.192291,352.341064 &#xA;&#x9;C278.682098,352.509918 288.217072,352.251648 297.647583,353.111176 &#xA;&#x9;C309.573517,354.198212 315.739502,363.284973 311.968292,373.137726 &#xA;&#x9;C309.596069,379.335419 304.231171,382.355011 298.334930,382.588837 &#xA;&#x9;C283.906830,383.161041 269.440704,382.775635 254.489639,382.775635 &#xA;&#x9;C254.489639,380.026947 254.489639,377.224915 254.489685,373.931702 &#xA;z"/>
  <path fill="#312D2D" stroke="none" d="&#xA;M272.000671,290.067749 &#xA;&#x9;C279.308868,290.355194 286.177979,290.176788 292.911438,291.047455 &#xA;&#x9;C301.411987,292.146667 305.958588,297.428284 305.939423,304.844421 &#xA;&#x9;C305.919922,312.390442 301.101593,317.845917 292.437805,318.836914 &#xA;&#x9;C285.185059,319.666473 277.819336,319.563690 270.500397,319.740356 &#xA;&#x9;C265.359650,319.864441 260.213531,319.764343 254.695328,319.764343 &#xA;&#x9;C254.695328,309.858551 254.695328,300.296173 254.695328,290.067749 &#xA;&#x9;C260.309601,290.067749 265.905457,290.067749 272.000671,290.067749 &#xA;z"/>
  <path fill="#352D28" stroke="none" d="&#xA;M291.509583,475.792908 &#xA;&#x9;C292.460449,470.086731 293.807343,464.578583 295.154236,459.070435 &#xA;&#x9;C295.530243,459.076385 295.906250,459.082306 296.282257,459.088226 &#xA;&#x9;C297.920898,464.542908 299.559509,469.997620 301.359924,475.990936 &#xA;&#x9;C297.808746,475.990936 294.857178,475.990936 291.509583,475.792908 &#xA;z"/>
</svg>